<svg width="525" height="622" viewBox="0 0 525 622" fill="none" xmlns="http://www.w3.org/2000/svg">
<path d="M293.742 119.721C359.037 174.265 436.082 201.263 525 203.229C525 225.615 525 248.016 525 271.258C497.357 272.676 470.897 267.737 445.225 259.143C416.219 249.434 391.05 234.294 369.169 214.769C346.854 194.857 324.513 174.969 302.183 155.071C301.071 155.284 299.96 155.496 298.848 155.709C302.066 174.44 304.111 193.403 308.72 211.857C322.793 268.209 354.123 316.132 399.104 357.577C460.339 413.997 431.706 507.071 346.903 527.078C305.339 536.884 267.888 527.996 236.997 501.035C188.812 458.981 132.182 431.082 66.0784 419.259C44.5804 415.414 22.5315 414.015 -2.97427e-05 411.413C-2.97427e-05 389.958 -2.97427e-05 367.582 -2.97427e-05 342.616C18.8362 345.048 37.9319 346.146 56.2214 350.161C94.5666 358.578 127.662 375.899 155.524 401.057C177.926 421.286 200.589 441.284 224.472 462.576C223.926 430.091 217.169 400.363 205.711 371.389C188.808 328.646 161.985 291.559 126.489 259.139C63.5084 201.615 93.4201 107.21 180.911 88.122C224.788 78.5492 262.036 90.9116 293.742 119.721ZM151.116 121.551C105.322 155.059 102.216 209.931 144.042 247.281C168.163 268.821 192.476 290.19 216.454 311.855C229.927 324.027 243.885 335.931 255.895 349.2C286.547 383.062 301.399 422.324 302.338 465.747C302.657 480.492 302.389 495.247 302.389 510.619C312.803 510.619 321.813 511.738 330.353 510.426C367.763 504.679 393.922 486.044 405.429 453.496C416.938 420.941 407.51 392.393 380.661 368.345C349.31 340.267 317.824 312.308 286.439 284.26C249.189 250.973 227.408 211.054 223.773 164.043C222.292 144.894 223.528 125.578 223.528 105.965C196.193 102.375 173.157 107.228 151.116 121.551Z" fill="#E5E2E4"/>
<path d="M300 48.9189C300 67.9445 300 86.0465 300 105.929C278.026 88.4159 253.496 77.7328 225 74.5517C225 49.6262 225 25.1258 225 0C249.639 0 274.02 0 300 0C300 15.7532 300 31.8742 300 48.9189Z" fill="#E5E2E4"/>
<path d="M225 536.493C225 527.6 225 519.672 225 509.947C247.157 528.912 271.567 539.745 300 543.172C300 569.298 300 595.025 300 621.451C275.384 621.451 250.715 621.451 225 621.451C225 593.549 225 565.503 225 536.493Z" fill="#E5E2E4"/>
</svg>
